<?xml version="1.0" encoding="UTF-8" standalone="no"?>
<!-- Created with Inkscape (http://www.inkscape.org/) -->

<svg
   width="33.072918mm"
   height="33.072918mm"
   viewBox="0 0 33.072918 33.072918"
   version="1.1"
   id="svg5"
   xml:space="preserve"
   inkscape:version="1.2.2 (732a01da63, 2022-12-09)"
   sodipodi:docname="logo.inkscape.svg"
   xmlns:inkscape="http://www.inkscape.org/namespaces/inkscape"
   xmlns:sodipodi="http://sodipodi.sourceforge.net/DTD/sodipodi-0.dtd"
   xmlns="http://www.w3.org/2000/svg"
   xmlns:svg="http://www.w3.org/2000/svg"><sodipodi:namedview
     id="namedview7"
     pagecolor="#ffffff"
     bordercolor="#000000"
     borderopacity="0.25"
     inkscape:showpageshadow="2"
     inkscape:pageopacity="0.0"
     inkscape:pagecheckerboard="0"
     inkscape:deskcolor="#d1d1d1"
     inkscape:document-units="mm"
     showgrid="false"
     inkscape:zoom="4.7572176"
     inkscape:cx="76.725521"
     inkscape:cy="75.043866"
     inkscape:window-width="1920"
     inkscape:window-height="1057"
     inkscape:window-x="-8"
     inkscape:window-y="-8"
     inkscape:window-maximized="1"
     inkscape:current-layer="layer1" /><defs
     id="defs2"><inkscape:path-effect
       effect="bspline"
       id="path-effect4557"
       is_visible="true"
       lpeversion="1"
       weight="33.333333"
       steps="2"
       helper_size="0"
       apply_no_weight="true"
       apply_with_weight="true"
       only_selected="false" /><inkscape:path-effect
       effect="bspline"
       id="path-effect4553"
       is_visible="true"
       lpeversion="1"
       weight="33.333333"
       steps="2"
       helper_size="0"
       apply_no_weight="true"
       apply_with_weight="true"
       only_selected="false" /><inkscape:path-effect
       effect="bspline"
       id="path-effect4549"
       is_visible="true"
       lpeversion="1"
       weight="33.333333"
       steps="2"
       helper_size="0"
       apply_no_weight="true"
       apply_with_weight="true"
       only_selected="false" /><inkscape:path-effect
       effect="bspline"
       id="path-effect3819"
       is_visible="true"
       lpeversion="1"
       weight="33.333333"
       steps="2"
       helper_size="0"
       apply_no_weight="true"
       apply_with_weight="true"
       only_selected="false" /><inkscape:path-effect
       effect="bspline"
       id="path-effect3811"
       is_visible="true"
       lpeversion="1"
       weight="33.333333"
       steps="2"
       helper_size="0"
       apply_no_weight="true"
       apply_with_weight="true"
       only_selected="false" /><inkscape:path-effect
       effect="powerstroke"
       id="path-effect3061"
       is_visible="true"
       lpeversion="1"
       offset_points="0.73128829,0.58990995"
       not_jump="true"
       sort_points="true"
       interpolator_type="CentripetalCatmullRom"
       interpolator_beta="0.75"
       start_linecap_type="round"
       linejoin_type="spiro"
       miter_limit="4"
       scale_width="1"
       end_linecap_type="round" /><inkscape:path-effect
       effect="simplify"
       id="path-effect3059"
       is_visible="true"
       lpeversion="1"
       steps="1"
       threshold="0.0047745358"
       smooth_angles="0"
       helper_size="0"
       simplify_individual_paths="false"
       simplify_just_coalesce="false"
       step="1" /><inkscape:path-effect
       effect="powerstroke"
       id="path-effect3054"
       is_visible="true"
       lpeversion="1"
       offset_points="1.665282,0.58990995"
       not_jump="true"
       sort_points="true"
       interpolator_type="CentripetalCatmullRom"
       interpolator_beta="0.75"
       start_linecap_type="round"
       linejoin_type="spiro"
       miter_limit="4"
       scale_width="1"
       end_linecap_type="round" /><inkscape:path-effect
       effect="simplify"
       id="path-effect3052"
       is_visible="true"
       lpeversion="1"
       steps="1"
       threshold="0.0047745358"
       smooth_angles="0"
       helper_size="0"
       simplify_individual_paths="false"
       simplify_just_coalesce="false"
       step="1" /><inkscape:path-effect
       effect="powerstroke"
       id="path-effect3041"
       is_visible="true"
       lpeversion="1"
       offset_points="2.1012147,0.58990995"
       not_jump="true"
       sort_points="true"
       interpolator_type="CentripetalCatmullRom"
       interpolator_beta="0.75"
       start_linecap_type="round"
       linejoin_type="spiro"
       miter_limit="4"
       scale_width="1"
       end_linecap_type="round" /><inkscape:path-effect
       effect="simplify"
       id="path-effect3039"
       is_visible="true"
       lpeversion="1"
       steps="1"
       threshold="0.0047745358"
       smooth_angles="0"
       helper_size="0"
       simplify_individual_paths="false"
       simplify_just_coalesce="false"
       step="1" /><inkscape:path-effect
       effect="powerstroke"
       id="path-effect3034"
       is_visible="true"
       lpeversion="1"
       offset_points="1.5,0"
       not_jump="true"
       sort_points="true"
       interpolator_type="CentripetalCatmullRom"
       interpolator_beta="0.75"
       start_linecap_type="round"
       linejoin_type="spiro"
       miter_limit="4"
       scale_width="1"
       end_linecap_type="round" /><inkscape:path-effect
       effect="simplify"
       id="path-effect3032"
       is_visible="true"
       lpeversion="1"
       steps="1"
       threshold="0.0047745358"
       smooth_angles="0"
       helper_size="0"
       simplify_individual_paths="false"
       simplify_just_coalesce="false"
       step="1" /><inkscape:path-effect
       effect="powerstroke"
       id="path-effect3027"
       is_visible="true"
       lpeversion="1"
       offset_points="1.1865292,0.58990995"
       not_jump="true"
       sort_points="true"
       interpolator_type="CentripetalCatmullRom"
       interpolator_beta="0.75"
       start_linecap_type="round"
       linejoin_type="spiro"
       miter_limit="4"
       scale_width="1"
       end_linecap_type="round" /><inkscape:path-effect
       effect="simplify"
       id="path-effect3025"
       is_visible="true"
       lpeversion="1"
       steps="1"
       threshold="0.0047745358"
       smooth_angles="0"
       helper_size="0"
       simplify_individual_paths="false"
       simplify_just_coalesce="false"
       step="1" /><inkscape:path-effect
       effect="bspline"
       id="path-effect3022"
       is_visible="true"
       lpeversion="1"
       weight="33.333333"
       steps="2"
       helper_size="0"
       apply_no_weight="true"
       apply_with_weight="true"
       only_selected="false" /><inkscape:path-effect
       effect="bspline"
       id="path-effect2091"
       is_visible="true"
       lpeversion="1"
       weight="33.333333"
       steps="2"
       helper_size="0"
       apply_no_weight="true"
       apply_with_weight="true"
       only_selected="false" /><inkscape:path-effect
       effect="bspline"
       id="path-effect2087"
       is_visible="true"
       lpeversion="1"
       weight="33.333333"
       steps="2"
       helper_size="0"
       apply_no_weight="true"
       apply_with_weight="true"
       only_selected="false" /><clipPath
       clipPathUnits="userSpaceOnUse"
       id="clipPath1952"><rect
         style="fill:#000000;fill-opacity:1;stroke:#232323;stroke-width:0;stroke-linecap:round;paint-order:markers fill stroke"
         id="rect1954"
         width="25.250227"
         height="29.755224"
         x="95.105484"
         y="123.30343"
         ry="0.90820676" /></clipPath></defs><g
     inkscape:label="Layer 1"
     inkscape:groupmode="layer"
     id="layer1"><circle
       style="fill:#474473;fill-opacity:1;stroke:#000000;stroke-width:0.846527;stroke-linecap:round;stroke-dasharray:none;stroke-opacity:1;paint-order:markers fill stroke"
       id="path4619"
       cx="16.536459"
       cy="16.536459"
       inkscape:label="Circle"
       r="16.113195" /><g
       id="g4565"
       inkscape:label="Weird lamp thingy"
       transform="translate(-91.159047,-122.11849)"><path
         style="fill:none;fill-opacity:1;stroke:#ffd500;stroke-width:1;stroke-linecap:round;stroke-dasharray:none;stroke-opacity:1;paint-order:markers fill stroke"
         d="m 100.6394,143.29783 c -0.009,0.86233 -0.0185,1.7244 0.0835,2.4799 0.10202,0.75549 0.31522,1.40435 0.56553,1.99761 0.25031,0.59325 0.53766,1.13087 0.91777,1.61286 0.38012,0.48199 0.85285,0.90838 1.33489,1.2745 0.48204,0.36612 0.97331,0.67201 1.49705,0.90833 0.52373,0.23633 1.0799,0.40318 1.73801,0.47266 0.65811,0.0695 1.4182,0.0417 2.17364,-0.0835 0.75543,-0.12516 1.50625,-0.34762 2.16433,-0.66278 0.65809,-0.31517 1.22351,-0.72302 1.66841,-1.15865 0.4449,-0.43562 0.76933,-0.89909 1.07058,-1.4506 0.30126,-0.55151 0.57934,-1.1911 0.76474,-1.7565 0.1854,-0.56541 0.27809,-1.05669 0.31519,-1.78432 0.0371,-0.72764 0.0186,-1.69165 0.005,-2.75766 -0.0139,-1.06601 -0.0232,-2.23395 0.0602,-3.0173 0.0834,-0.78335 0.25952,-1.18193 0.54233,-1.47865 0.2828,-0.29672 0.67211,-0.49137 1.01517,-0.58868 0.34306,-0.0973 0.63968,-0.0973 0.98268,-0.0509 0.343,0.0464 0.73231,0.13908 1.03356,0.27357 0.30125,0.13449 0.51444,0.3106 0.67659,0.52848 0.16214,0.21788 0.27337,0.47742 0.33356,0.82038 0.0602,0.34296 0.0695,0.76934 -0.0325,1.15856 -0.102,0.38923 -0.31519,0.74147 -0.57004,0.99632 -0.25484,0.25485 -0.55146,0.41242 -0.88511,0.52367 -0.33366,0.11124 -0.70442,0.17613 -1.2374,0.19469 -0.53298,0.0186 -1.22818,-0.009 -1.92367,-0.037"
         id="path2089"
         inkscape:path-effect="#path-effect2091"
         inkscape:original-d="m 100.6394,143.29783 c -0.009,0.86233 -0.0183,1.7244 -0.0278,2.5862 0.21347,0.64914 0.42667,1.298 0.6396,1.9466 0.28763,0.53791 0.57498,1.07553 0.86207,1.6129 0.47302,0.42668 0.94576,0.85307 1.41824,1.2792 0.49156,0.30617 0.98283,0.61206 1.47386,0.91768 0.55644,0.16713 1.11261,0.33397 1.66851,0.50056 0.76038,-0.0275 1.52047,-0.0554 2.28031,-0.0834 0.75111,-0.22222 1.50193,-0.44468 2.2525,-0.66741 0.56572,-0.40761 1.13115,-0.81546 1.69632,-1.22358 0.32471,-0.46322 0.64914,-0.92669 0.97331,-1.39043 0.27835,-0.63935 0.55643,-1.27894 0.83426,-1.9188 0.093,-0.49103 0.18565,-0.98231 0.27808,-1.47385 -0.0183,-0.96379 -0.0368,-1.92781 -0.0556,-2.8921 -0.009,-1.16772 -0.0183,-2.33566 -0.0278,-3.50389 0.17639,-0.39833 0.35251,-0.79691 0.52837,-1.19577 0.38959,-0.1944 0.7789,-0.38905 1.16796,-0.58398 0.2969,2.6e-4 0.59352,2.6e-4 0.88988,0 0.38959,0.093 0.7789,0.18566 1.16796,0.27809 0.21347,0.17638 0.42666,0.3525 0.6396,0.52836 0.1115,0.25982 0.22273,0.51936 0.3337,0.77864 0.01,0.42667 0.0188,0.85306 0.0278,1.2792 -0.21294,0.35251 -0.42613,0.70475 -0.6396,1.05673 -0.29636,0.15785 -0.59298,0.31542 -0.88988,0.47274 -0.37052,0.0652 -0.74129,0.13004 -1.11234,0.19466 -0.69497,-0.0275 -1.39017,-0.0553 -2.08565,-0.0834" /><path
         style="fill:none;fill-opacity:1;stroke:#ffd500;stroke-width:1;stroke-linecap:round;stroke-dasharray:none;stroke-opacity:1;paint-order:markers fill stroke"
         d="m 107.75688,145.23583 c 0.007,-2.16929 0.0131,-4.33885 0.0131,-6.25607 0,-1.91723 -0.007,-3.58205 -0.0131,-5.0044 -0.007,-1.42235 -0.0131,-2.60215 -0.01,-3.26745 0.003,-0.66531 0.0164,-0.81606 -0.344,-1.25193 -0.36037,-0.43587 -1.09446,-1.15686 -1.48458,-1.84508 -0.39012,-0.68822 -0.436,-1.34367 -0.29182,-1.86489 0.14419,-0.52122 0.47847,-0.90794 0.90135,-1.15376 0.42288,-0.24583 0.93413,-0.3507 1.46183,-0.31785 0.5277,0.0328 1.07172,0.20325 1.46494,0.47537 0.39321,0.27212 0.63573,0.64573 0.73722,1.10125 0.10148,0.45551 0.0622,0.99297 -0.19019,1.50739 -0.25235,0.51442 -0.71771,1.006 -1.11425,1.39271 -0.39654,0.38671 -0.72426,0.66855 -1.05201,0.95041"
         id="path3817"
         inkscape:path-effect="#path-effect3819"
         inkscape:original-d="m 107.75688,145.23583 c 0.007,-2.16929 0.0134,-4.33885 0.0197,-6.50867 -0.006,-1.66463 -0.0129,-3.32945 -0.0197,-4.99457 -0.006,-1.17958 -0.0129,-2.35938 -0.0196,-3.53946 0.0134,-0.1505 0.0265,-0.30125 0.0393,-0.45227 -0.73386,-0.72075 -1.46795,-1.44174 -2.20233,-2.163 -0.0456,-0.6552 -0.0915,-1.31065 -0.13764,-1.96637 0.33455,-0.38646 0.66883,-0.77317 1.00284,-1.16015 0.51153,-0.10461 1.02278,-0.20949 1.53377,-0.31462 0.5443,0.17069 1.08832,0.3411 1.63208,0.51125 0.24279,0.37388 0.48531,0.74749 0.72756,1.12083 -0.0391,0.53775 -0.0784,1.07521 -0.11798,1.61242 -0.46512,0.49187 -0.93048,0.98345 -1.39612,1.47478 -0.32747,0.28211 -0.65519,0.56395 -0.98318,0.84553" /><path
         style="fill:none;fill-opacity:1;stroke:#ffd500;stroke-width:1;stroke-linecap:round;stroke-dasharray:none;stroke-opacity:1;paint-order:markers fill stroke"
         d="m 106.02037,134.74668 c 2.67916,0.005 5.35806,0.009 6.7508,0.005 1.39273,-0.005 1.49932,-0.0185 1.77731,-0.21321 0.27799,-0.19465 0.72755,-0.57006 0.98939,-1.03342 0.26184,-0.46336 0.33599,-1.01488 0.25267,-1.49918 -0.0833,-0.48429 -0.32433,-0.90141 -0.58845,-1.20736 -0.26412,-0.30596 -0.55147,-0.50061 -0.83652,-0.61425 -0.28506,-0.11363 -0.56776,-0.14606 -0.8853,-0.12061 -0.31754,0.0255 -0.66977,0.10889 -0.9688,0.2549 -0.29903,0.14601 -0.54466,0.35457 -0.72778,0.5887 -0.18311,0.23412 -0.30361,0.49367 -0.38472,0.67675 -0.0811,0.18307 -0.12282,0.2897 -0.14597,0.5748 -0.0232,0.28509 -0.0278,0.74856 -0.0255,1.15412 0.002,0.40556 0.0116,0.75315 0.0139,0.98487 0.002,0.23172 -0.002,0.3476 -0.007,0.46322"
         id="path4547"
         inkscape:path-effect="#path-effect4549"
         inkscape:original-d="m 106.02037,134.74668 c 2.67916,0.005 5.35806,0.01 8.03669,0.0139 0.10687,-0.0137 0.21347,-0.0275 0.3198,-0.0417 0.44985,-0.37515 0.89941,-0.75056 1.34872,-1.12624 0.0744,-0.55129 0.14858,-1.10281 0.22247,-1.65462 -0.24075,-0.41687 -0.48175,-0.83399 -0.72303,-1.25139 -0.28709,-0.1944 -0.57444,-0.38905 -0.86206,-0.58398 -0.28247,-0.0322 -0.56518,-0.0646 -0.84817,-0.0973 -0.35198,0.0837 -0.70422,0.16712 -1.05672,0.25028 -0.24539,0.20883 -0.49102,0.4174 -0.73693,0.6257 -0.12024,0.25981 -0.24075,0.51936 -0.36151,0.77864 -0.0414,0.10686 -0.0832,0.21346 -0.12514,0.3198 -0.004,0.46375 -0.009,0.92721 -0.0139,1.39043 0.01,0.34788 0.0188,0.69548 0.0278,1.04282 -0.004,0.11614 -0.009,0.232 -0.0139,0.34761" /><path
         style="fill:none;fill-opacity:1;stroke:#ffd500;stroke-width:1;stroke-linecap:round;stroke-dasharray:none;stroke-opacity:1;paint-order:markers fill stroke"
         d="m 113.30623,141.89349 c -3.92075,-0.0324 -7.84177,-0.0649 -9.96682,-0.0788 -2.12505,-0.0139 -2.45411,-0.009 -3.06127,-0.005 -0.607159,0.005 -1.492386,0.009 -2.092563,-0.0625 -0.600176,-0.0718 -0.915334,-0.22008 -1.18881,-0.4031 -0.273476,-0.18302 -0.50521,-0.40085 -0.676786,-0.6905 -0.171577,-0.28965 -0.282808,-0.65115 -0.331527,-1.01733 -0.04872,-0.36618 -0.03482,-0.73696 0.05324,-1.02211 0.08806,-0.28515 0.250268,-0.48444 0.449584,-0.69072 0.199317,-0.20627 0.435682,-0.41946 0.723147,-0.55388 0.287464,-0.13442 0.62579,-0.19004 0.971121,-0.19463 0.345332,-0.005 0.697573,0.0418 1.017372,0.17625 0.319799,0.13451 0.607151,0.35697 0.836513,0.62815 0.22936,0.27118 0.40084,0.59097 0.50041,0.95479 0.0996,0.36382 0.12737,0.77167 0.13894,1.25136 0.0116,0.47969 0.007,1.03123 0.002,1.5825"
         id="path4551"
         inkscape:path-effect="#path-effect4553"
         inkscape:original-d="m 113.30623,141.89349 c -3.92075,-0.0322 -7.84177,-0.0646 -11.76305,-0.0973 -0.32881,0.005 -0.65787,0.01 -0.9872,0.0139 -0.884997,0.005 -1.770222,0.01 -2.655727,0.0139 -0.314907,-0.14805 -0.630065,-0.29636 -0.945494,-0.44494 -0.231478,-0.21757 -0.463211,-0.4354 -0.695213,-0.6535 -0.110975,-0.36126 -0.222205,-0.72276 -0.333706,-1.08454 0.01418,-0.37052 0.02808,-0.7413 0.04171,-1.11234 0.162486,-0.19904 0.324699,-0.39833 0.486651,-0.59789 0.236643,-0.21294 0.473011,-0.42613 0.70912,-0.6396 0.338609,-0.0554 0.676942,-0.11097 1.015013,-0.16685 0.352515,0.0466 0.70475,0.093 1.05673,0.13905 0.287626,0.22273 0.574974,0.4452 0.862066,0.6674 0.17176,0.32007 0.34324,0.63986 0.51446,0.9594 0.0281,0.40813 0.0559,0.81598 0.0834,1.22358 -0.004,0.55181 -0.009,1.10334 -0.0139,1.65461" /><path
         style="display:inline;fill:none;fill-opacity:1;stroke:#ffd500;stroke-width:1;stroke-linecap:round;stroke-dasharray:none;stroke-opacity:1;paint-order:markers fill stroke"
         d="m 111.2623,136.37348 c -0.009,3.04994 -0.0185,6.09962 -0.0232,7.71716 -0.005,1.61754 -0.005,1.80292 -0.11589,2.07164 -0.11126,0.26873 -0.33372,0.62097 -0.59787,0.92218 -0.26415,0.30122 -0.57004,0.55149 -0.91221,0.80022 -0.34218,0.24872 -0.72066,0.4959 -1.1261,0.59495 -0.40543,0.0991 -0.83803,0.0499 -1.2149,-0.0402 -0.37688,-0.0901 -0.69804,-0.22117 -1.04709,-0.44069 -0.34905,-0.21953 -0.72593,-0.52759 -1.0226,-0.91427 -0.29667,-0.38669 -0.51296,-0.85204 -0.63263,-1.14865 -0.11966,-0.29661 -0.14259,-0.42441 -0.16063,-0.98485 -0.0181,-0.56045 -0.0311,-1.55345 -0.0344,-2.74311 -0.003,-1.18967 0.003,-2.57593 0.01,-3.98682 0.007,-1.41088 0.0131,-2.84629 0.008,-3.89011 -0.005,-1.04381 -0.0213,-1.69598 -0.10646,-2.19083 -0.0852,-0.49485 -0.23917,-0.8324 -0.421,-1.09135 -0.18182,-0.25894 -0.39156,-0.43919 -0.69634,-0.5982 -0.30477,-0.15902 -0.7046,-0.29667 -1.12906,-0.32787 -0.42445,-0.0312 -0.87344,0.0442 -1.20621,0.23594 -0.33277,0.19177 -0.54907,0.49982 -0.71786,0.77351 -0.168784,0.27368 -0.290039,0.51291 -0.349008,0.79648 -0.05897,0.28357 -0.0557,0.61129 -0.01142,0.91447 0.04429,0.30317 0.129494,0.58174 0.298376,0.82422 0.16888,0.24248 0.42122,0.44894 0.67359,0.60456 0.25237,0.15562 0.50472,0.26049 0.84227,0.34074 0.33755,0.0803 0.76031,0.13596 1.24206,0.15888 0.48175,0.0229 1.02249,0.0131 1.56297,0.003"
         id="path4555"
         inkscape:path-effect="#path-effect4557"
         inkscape:original-d="m 111.2623,136.37348 c -0.009,3.04994 -0.0183,6.09962 -0.0278,9.14904 2.6e-4,0.18566 2.6e-4,0.37104 0,0.55617 -0.22221,0.35251 -0.44468,0.70475 -0.66741,1.05673 -0.30564,0.25054 -0.61152,0.50082 -0.91768,0.75083 -0.37823,0.24746 -0.75671,0.49464 -1.13546,0.74156 -0.43235,-0.0489 -0.86494,-0.0981 -1.29781,-0.14747 -0.32091,-0.13083 -0.64208,-0.26192 -0.96352,-0.39328 -0.37662,-0.3078 -0.7535,-0.61586 -1.13066,-0.92419 -0.21604,-0.46512 -0.43233,-0.93048 -0.6489,-1.39612 -0.0227,-0.12755 -0.0456,-0.25536 -0.0688,-0.38344 -0.0129,-0.99277 -0.026,-1.98577 -0.0393,-2.97905 0.007,-1.38605 0.0134,-2.77231 0.0197,-4.15886 0.007,-1.43522 0.0134,-2.87063 0.0197,-4.30635 -0.0161,-0.65192 -0.0325,-1.30409 -0.0492,-1.95653 -0.15377,-0.3373 -0.3078,-0.67485 -0.46209,-1.01268 -0.20949,-0.17999 -0.41923,-0.36023 -0.62924,-0.54075 -0.39958,-0.13738 -0.7994,-0.27503 -1.19949,-0.41294 -0.44873,0.0756 -0.89771,0.15102 -1.34696,0.22613 -0.21604,0.30834 -0.43233,0.6164 -0.6489,0.9242 -0.120995,0.23951 -0.242254,0.47874 -0.363777,0.71772 0.0035,0.328 0.0068,0.65572 0.0098,0.98319 0.08548,0.27883 0.170682,0.5574 0.255627,0.8357 0.25262,0.20674 0.50497,0.4132 0.75706,0.61941 0.25261,0.10514 0.50496,0.21001 0.75704,0.31461 0.42305,0.056 0.84581,0.1117 1.26831,0.16715 0.54103,-0.01 1.08177,-0.0194 1.62225,-0.0295" /></g></g></svg>
