<?xml version="1.0" encoding="UTF-8" standalone="no"?>
<!-- Created with Inkscape (http://www.inkscape.org/) -->

<svg
   width="33.072918mm"
   height="33.072918mm"
   viewBox="0 0 33.072918 33.072918"
   version="1.1"
   id="svg5"
   xml:space="preserve"
   xmlns="http://www.w3.org/2000/svg"
   xmlns:svg="http://www.w3.org/2000/svg"><defs
     id="defs2"><clipPath
       clipPathUnits="userSpaceOnUse"
       id="clipPath1952"><rect
         style="fill:#000000;fill-opacity:1;stroke:#232323;stroke-width:0;stroke-linecap:round;paint-order:markers fill stroke"
         id="rect1954"
         width="25.250227"
         height="29.755224"
         x="95.105484"
         y="123.30343"
         ry="0.90820676" /></clipPath></defs><g
     id="layer1"><path
       id="path4619"
       style="fill:#474473;stroke:#000000;stroke-width:0.846527;stroke-linecap:round;paint-order:markers fill stroke"
       d="M 32.649654,16.536459 A 16.113195,16.113195 0 0 1 16.536459,32.649654 16.113195,16.113195 0 0 1 0.42326355,16.536459 16.113195,16.113195 0 0 1 16.536459,0.42326355 16.113195,16.113195 0 0 1 32.649654,16.536459 Z" /><g
       id="g4565"
       transform="translate(-91.159047,-122.11849)"><path
         style="fill:none;fill-opacity:1;stroke:#ffd500;stroke-width:1;stroke-linecap:round;stroke-dasharray:none;stroke-opacity:1;paint-order:markers fill stroke"
         d="m 100.6394,143.29783 c -0.009,0.86233 -0.0185,1.7244 0.0835,2.4799 0.10202,0.75549 0.31522,1.40435 0.56553,1.99761 0.25031,0.59325 0.53766,1.13087 0.91777,1.61286 0.38012,0.48199 0.85285,0.90838 1.33489,1.2745 0.48204,0.36612 0.97331,0.67201 1.49705,0.90833 0.52373,0.23633 1.0799,0.40318 1.73801,0.47266 0.65811,0.0695 1.4182,0.0417 2.17364,-0.0835 0.75543,-0.12516 1.50625,-0.34762 2.16433,-0.66278 0.65809,-0.31517 1.22351,-0.72302 1.66841,-1.15865 0.4449,-0.43562 0.76933,-0.89909 1.07058,-1.4506 0.30126,-0.55151 0.57934,-1.1911 0.76474,-1.7565 0.1854,-0.56541 0.27809,-1.05669 0.31519,-1.78432 0.0371,-0.72764 0.0186,-1.69165 0.005,-2.75766 -0.0139,-1.06601 -0.0232,-2.23395 0.0602,-3.0173 0.0834,-0.78335 0.25952,-1.18193 0.54233,-1.47865 0.2828,-0.29672 0.67211,-0.49137 1.01517,-0.58868 0.34306,-0.0973 0.63968,-0.0973 0.98268,-0.0509 0.343,0.0464 0.73231,0.13908 1.03356,0.27357 0.30125,0.13449 0.51444,0.3106 0.67659,0.52848 0.16214,0.21788 0.27337,0.47742 0.33356,0.82038 0.0602,0.34296 0.0695,0.76934 -0.0325,1.15856 -0.102,0.38923 -0.31519,0.74147 -0.57004,0.99632 -0.25484,0.25485 -0.55146,0.41242 -0.88511,0.52367 -0.33366,0.11124 -0.70442,0.17613 -1.2374,0.19469 -0.53298,0.0186 -1.22818,-0.009 -1.92367,-0.037"
         id="path2089" /><path
         style="fill:none;fill-opacity:1;stroke:#ffd500;stroke-width:1;stroke-linecap:round;stroke-dasharray:none;stroke-opacity:1;paint-order:markers fill stroke"
         d="m 107.75688,145.23583 c 0.007,-2.16929 0.0131,-4.33885 0.0131,-6.25607 0,-1.91723 -0.007,-3.58205 -0.0131,-5.0044 -0.007,-1.42235 -0.0131,-2.60215 -0.01,-3.26745 0.003,-0.66531 0.0164,-0.81606 -0.344,-1.25193 -0.36037,-0.43587 -1.09446,-1.15686 -1.48458,-1.84508 -0.39012,-0.68822 -0.436,-1.34367 -0.29182,-1.86489 0.14419,-0.52122 0.47847,-0.90794 0.90135,-1.15376 0.42288,-0.24583 0.93413,-0.3507 1.46183,-0.31785 0.5277,0.0328 1.07172,0.20325 1.46494,0.47537 0.39321,0.27212 0.63573,0.64573 0.73722,1.10125 0.10148,0.45551 0.0622,0.99297 -0.19019,1.50739 -0.25235,0.51442 -0.71771,1.006 -1.11425,1.39271 -0.39654,0.38671 -0.72426,0.66855 -1.05201,0.95041"
         id="path3817" /><path
         style="fill:none;fill-opacity:1;stroke:#ffd500;stroke-width:1;stroke-linecap:round;stroke-dasharray:none;stroke-opacity:1;paint-order:markers fill stroke"
         d="m 106.02037,134.74668 c 2.67916,0.005 5.35806,0.009 6.7508,0.005 1.39273,-0.005 1.49932,-0.0185 1.77731,-0.21321 0.27799,-0.19465 0.72755,-0.57006 0.98939,-1.03342 0.26184,-0.46336 0.33599,-1.01488 0.25267,-1.49918 -0.0833,-0.48429 -0.32433,-0.90141 -0.58845,-1.20736 -0.26412,-0.30596 -0.55147,-0.50061 -0.83652,-0.61425 -0.28506,-0.11363 -0.56776,-0.14606 -0.8853,-0.12061 -0.31754,0.0255 -0.66977,0.10889 -0.9688,0.2549 -0.29903,0.14601 -0.54466,0.35457 -0.72778,0.5887 -0.18311,0.23412 -0.30361,0.49367 -0.38472,0.67675 -0.0811,0.18307 -0.12282,0.2897 -0.14597,0.5748 -0.0232,0.28509 -0.0278,0.74856 -0.0255,1.15412 0.002,0.40556 0.0116,0.75315 0.0139,0.98487 0.002,0.23172 -0.002,0.3476 -0.007,0.46322"
         id="path4547" /><path
         style="fill:none;fill-opacity:1;stroke:#ffd500;stroke-width:1;stroke-linecap:round;stroke-dasharray:none;stroke-opacity:1;paint-order:markers fill stroke"
         d="m 113.30623,141.89349 c -3.92075,-0.0324 -7.84177,-0.0649 -9.96682,-0.0788 -2.12505,-0.0139 -2.45411,-0.009 -3.06127,-0.005 -0.607159,0.005 -1.492386,0.009 -2.092563,-0.0625 -0.600176,-0.0718 -0.915334,-0.22008 -1.18881,-0.4031 -0.273476,-0.18302 -0.50521,-0.40085 -0.676786,-0.6905 -0.171577,-0.28965 -0.282808,-0.65115 -0.331527,-1.01733 -0.04872,-0.36618 -0.03482,-0.73696 0.05324,-1.02211 0.08806,-0.28515 0.250268,-0.48444 0.449584,-0.69072 0.199317,-0.20627 0.435682,-0.41946 0.723147,-0.55388 0.287464,-0.13442 0.62579,-0.19004 0.971121,-0.19463 0.345332,-0.005 0.697573,0.0418 1.017372,0.17625 0.319799,0.13451 0.607151,0.35697 0.836513,0.62815 0.22936,0.27118 0.40084,0.59097 0.50041,0.95479 0.0996,0.36382 0.12737,0.77167 0.13894,1.25136 0.0116,0.47969 0.007,1.03123 0.002,1.5825"
         id="path4551" /><path
         style="display:inline;fill:none;fill-opacity:1;stroke:#ffd500;stroke-width:1;stroke-linecap:round;stroke-dasharray:none;stroke-opacity:1;paint-order:markers fill stroke"
         d="m 111.2623,136.37348 c -0.009,3.04994 -0.0185,6.09962 -0.0232,7.71716 -0.005,1.61754 -0.005,1.80292 -0.11589,2.07164 -0.11126,0.26873 -0.33372,0.62097 -0.59787,0.92218 -0.26415,0.30122 -0.57004,0.55149 -0.91221,0.80022 -0.34218,0.24872 -0.72066,0.4959 -1.1261,0.59495 -0.40543,0.0991 -0.83803,0.0499 -1.2149,-0.0402 -0.37688,-0.0901 -0.69804,-0.22117 -1.04709,-0.44069 -0.34905,-0.21953 -0.72593,-0.52759 -1.0226,-0.91427 -0.29667,-0.38669 -0.51296,-0.85204 -0.63263,-1.14865 -0.11966,-0.29661 -0.14259,-0.42441 -0.16063,-0.98485 -0.0181,-0.56045 -0.0311,-1.55345 -0.0344,-2.74311 -0.003,-1.18967 0.003,-2.57593 0.01,-3.98682 0.007,-1.41088 0.0131,-2.84629 0.008,-3.89011 -0.005,-1.04381 -0.0213,-1.69598 -0.10646,-2.19083 -0.0852,-0.49485 -0.23917,-0.8324 -0.421,-1.09135 -0.18182,-0.25894 -0.39156,-0.43919 -0.69634,-0.5982 -0.30477,-0.15902 -0.7046,-0.29667 -1.12906,-0.32787 -0.42445,-0.0312 -0.87344,0.0442 -1.20621,0.23594 -0.33277,0.19177 -0.54907,0.49982 -0.71786,0.77351 -0.168784,0.27368 -0.290039,0.51291 -0.349008,0.79648 -0.05897,0.28357 -0.0557,0.61129 -0.01142,0.91447 0.04429,0.30317 0.129494,0.58174 0.298376,0.82422 0.16888,0.24248 0.42122,0.44894 0.67359,0.60456 0.25237,0.15562 0.50472,0.26049 0.84227,0.34074 0.33755,0.0803 0.76031,0.13596 1.24206,0.15888 0.48175,0.0229 1.02249,0.0131 1.56297,0.003"
         id="path4555" /></g></g></svg>
